<svg width="1262" height="497" viewBox="0 0 1262 497" fill="none" xmlns="http://www.w3.org/2000/svg">
<path fill-rule="evenodd" clip-rule="evenodd" d="M281.592 210.393C280.384 211.255 278.84 211.531 277.397 211.138C275.953 210.749 274.745 209.735 274.141 208.372C268.637 196.128 264.541 183.111 262.091 169.534C260.312 159.682 259.372 149.535 259.372 139.17C259.372 130.856 259.977 122.676 261.151 114.681V114.678C261.554 111.758 263.602 109.328 266.387 108.398C269.207 107.468 272.295 108.196 274.376 110.284L314.554 150.459C320.864 149.556 327.342 149.089 333.921 149.089C340.5 149.089 346.978 149.556 353.288 150.459L393.466 110.284C395.581 108.196 398.669 107.468 401.454 108.398C404.24 109.328 406.288 111.758 406.724 114.678V114.681C407.866 122.676 408.469 130.856 408.469 139.17C408.469 149.535 407.53 159.682 405.751 169.534C403.3 183.101 399.206 196.107 393.734 208.349C393.13 209.711 391.922 210.725 390.479 211.118C389.035 211.51 387.491 211.235 386.249 210.373C371.414 200.021 353.389 193.946 333.954 193.946C314.487 193.946 296.428 200.028 281.592 210.393ZM273.738 387.309C218.02 373.671 191.939 293.561 244.671 246.324C245.745 245.378 247.323 245.297 248.464 246.137C249.605 246.979 250.008 248.51 249.437 249.805C235.642 280.068 248.262 303.939 292.233 315.6C294.347 316.154 296.663 316.788 298.778 317.51C313.144 322.441 323.482 336.081 323.482 352.119C323.482 372.309 307.102 388.698 286.929 388.698C283.439 388.698 279.042 388.604 273.738 387.309ZM394.137 387.309C388.868 388.604 384.437 388.698 380.98 388.698C360.773 388.698 344.393 372.309 344.393 352.119C344.393 336.081 354.731 322.441 369.097 317.51C371.212 316.788 373.562 316.154 375.643 315.6C419.613 303.939 432.267 280.068 418.472 249.805C417.868 248.51 418.271 246.979 419.412 246.137C420.587 245.297 422.164 245.378 423.205 246.324C475.969 293.561 449.889 373.671 394.137 387.309Z" fill="white"/>
<path fill-rule="evenodd" clip-rule="evenodd" d="M255.411 267.746C260.613 244.656 275.785 225.313 296.126 214.454C298.979 212.927 314.855 205.546 334.323 205.546C346.608 205.546 356.98 208.225 361.511 209.876C386.953 219.16 406.421 240.924 412.463 267.746C413 271.774 412.732 275.583 411.523 279.155C407.529 291.03 394.371 299.173 372.823 304.893C370.473 305.513 367.855 306.229 365.505 307.034C355.133 310.595 346.373 317.644 340.6 326.78C340.331 327.237 339.928 327.616 339.458 327.885C337.646 328.939 335.397 328.946 333.585 327.902C331.738 326.858 330.597 324.921 330.597 322.817C330.53 319.097 330.966 314.955 332.443 311.032C332.443 311.025 332.443 311.022 332.443 311.015C335.565 301.865 343.05 294.88 352.381 292.393C360.571 290.191 371.547 286.895 379.233 282.901C378.461 280.158 376.75 277.748 374.333 276.141C371.279 274.083 367.419 273.569 363.928 274.744C357.45 276.946 349.629 278.772 340.398 279.779C338.787 279.957 337.21 279.443 336.001 278.362C334.793 277.285 334.088 275.748 334.088 274.13C334.054 270.196 334.759 266.021 335.733 261.993C337.948 252.984 344.661 245.784 353.489 243.005C353.623 242.958 353.757 242.918 353.858 242.881C356.476 242.102 358.926 241.169 361.343 239.927C364.935 238.081 369.298 234.201 367.855 228.988C367.15 226.34 365.404 223.725 359.363 220.936C351.542 218.143 343.117 216.522 334.323 216.622C313.244 216.857 301.832 224.128 300.254 224.95C297.099 226.595 295.354 228.763 294.951 231.029C294.347 234.369 296.73 237.611 300.187 239.776C309.921 245.851 317.708 259.348 313.647 269.025C310.458 276.53 297.468 276.923 287.533 277.597C282.397 277.95 277.9 281.145 275.886 285.864C274.476 289.228 272.798 293.088 271.556 295.823C269.508 294.736 259.942 289.389 256.384 279.155C255.142 275.597 254.907 271.774 255.411 267.746Z" fill="#31DCB2"/>
<path d="M605.456 169.787C604.427 170.055 603.192 170.188 601.649 170.188H565.846C564.405 170.188 563.376 170.476 562.656 171.073C561.936 171.67 561.627 172.493 561.627 173.542C561.627 175.322 562.45 176.536 564.199 177.194L566.052 177.884C566.978 178.213 567.594 178.635 568.006 179.149C568.417 179.653 568.624 180.322 568.624 181.145V228.358C568.624 229.181 568.417 229.85 568.006 230.354C567.594 230.868 566.978 231.29 566.052 231.619L564.199 232.309C562.45 232.967 561.627 234.181 561.627 235.961C561.627 236.98 561.936 237.803 562.656 238.41C563.376 239.017 564.405 239.325 565.846 239.325H595.682C597.122 239.325 598.253 239.017 598.871 238.41C599.591 237.803 600.003 236.98 600.003 235.961C600.003 234.881 599.694 234.048 599.283 233.471C598.768 232.895 598.048 232.494 597.019 232.257L594.035 231.619C593.109 231.424 592.492 231.033 592.081 230.457C591.669 229.881 591.463 229.181 591.463 228.358V209.736H597.739C599.488 209.736 600.929 209.89 602.061 210.189C603.09 210.477 604.118 211.002 604.941 211.743C605.764 212.483 606.69 213.522 607.616 214.88C608.336 215.827 609.056 216.444 609.879 216.732C610.702 217.01 611.526 216.979 612.451 216.65C613.377 216.321 613.995 215.827 614.303 215.169C614.715 214.51 614.715 213.594 614.407 212.411L610.6 196.701C610.188 194.89 608.953 193.985 607.101 193.985C606.278 193.985 605.559 194.18 604.941 194.581C604.427 194.972 603.913 195.662 603.604 196.65C602.781 199.119 601.958 200.765 601.032 201.588C600.106 202.411 598.665 202.823 596.607 202.823H591.463V177.246H596.813C598.974 177.246 601.031 177.596 602.78 178.285C604.529 178.974 606.278 180.25 607.924 182.112C609.673 183.975 611.32 186.68 613.172 190.23C613.686 191.351 614.406 192.071 615.23 192.38C616.155 192.699 616.979 192.781 617.802 192.658C618.933 192.493 619.756 192.051 620.374 191.341C620.991 190.641 621.094 189.777 620.888 188.748L616.464 173.738C615.95 171.896 615.332 170.589 614.509 169.818C613.686 169.036 612.554 168.655 611.011 168.655C610.085 168.655 609.262 168.779 608.336 169.026C607.513 169.272 606.484 169.53 605.456 169.787Z" fill="white"/>
<path d="M661.002 231.783C657.734 234.639 654.802 236.733 652.164 238.06C648.769 239.819 645.58 240.704 642.802 240.704C638.378 240.704 634.879 239.243 632.101 236.311C629.427 233.379 628.09 229.572 628.09 224.901V205.744C628.09 204.685 627.883 203.934 627.678 203.491C627.369 203.049 626.958 202.74 626.34 202.575L625.312 202.236C624.591 201.999 624.077 201.67 623.768 201.248C623.46 200.816 623.356 200.271 623.356 199.613C623.356 198.831 623.563 198.203 623.974 197.74C624.386 197.277 625.209 196.814 626.34 196.361L637.349 192.112C639.098 191.423 640.538 190.929 641.567 190.651C642.596 190.374 643.419 190.229 644.242 190.229C645.786 190.229 647.02 190.651 647.843 191.495C648.564 192.328 648.975 193.399 648.975 194.674V221.938C648.975 224.047 649.49 225.621 650.415 226.681C651.444 227.73 652.782 228.255 654.531 228.255C655.56 228.255 656.794 228.05 657.926 227.617C658.681 227.353 659.359 227.02 659.983 226.612V205.744C659.983 204.685 659.777 203.934 659.571 203.491C659.263 203.049 658.851 202.74 658.234 202.575L657.205 202.236C656.485 201.999 655.971 201.67 655.662 201.248C655.353 200.816 655.25 200.271 655.25 199.613C655.25 198.831 655.457 198.203 655.868 197.74C656.28 197.277 657.102 196.814 658.234 196.361L669.243 192.112C670.889 191.454 672.226 190.97 673.358 190.682C674.387 190.384 675.312 190.229 676.341 190.229C677.782 190.229 678.914 190.651 679.737 191.495C680.457 192.328 680.868 193.399 680.868 194.674V228.955C680.868 230.272 680.971 231.198 681.177 231.743C681.383 232.288 681.691 232.669 682.206 232.905L683.338 233.399C684.058 233.728 684.572 234.14 684.984 234.634C685.292 235.128 685.396 235.704 685.396 236.363C685.396 237.278 685.086 238.009 684.572 238.533C683.954 239.058 683.029 239.325 681.691 239.325H669.551C667.288 239.325 665.127 238.317 663.378 236.311C662.206 234.966 661.403 233.455 661.002 231.783Z" fill="white"/>
<path d="M716.67 228.955V211.568C716.67 209.366 716.773 207.607 717.082 206.31C717.391 205.004 717.802 204.067 718.317 203.491C718.831 202.915 719.345 202.627 720.065 202.627C720.785 202.627 721.299 202.853 721.608 203.296C722.02 203.738 722.226 204.386 722.226 205.25V207.319C722.226 209.86 722.946 211.835 724.284 213.275C725.724 214.705 727.782 215.415 730.663 215.415C733.338 215.415 735.601 214.397 737.35 212.36C739.099 210.312 739.922 207.144 739.922 202.823C739.922 198.615 738.996 195.456 737.144 193.368C735.292 191.279 732.617 190.229 729.119 190.229C726.547 190.229 724.181 191.022 721.918 192.606C719.757 194.18 718.007 196.608 716.67 199.89C716.484 200.345 716.312 200.816 716.154 201.304L715.23 194.674C715.024 193.069 714.716 191.917 714.201 191.248C713.687 190.569 712.966 190.229 712.04 190.229C711.526 190.229 710.703 190.363 709.674 190.631C708.645 190.888 706.999 191.485 704.632 192.411L694.036 196.557C692.904 196.979 692.081 197.432 691.67 197.915C691.155 198.388 690.949 199.026 690.949 199.818C690.949 200.477 691.155 201.012 691.464 201.444C691.772 201.876 692.287 202.205 692.904 202.432L694.036 202.781C694.55 202.946 694.962 203.244 695.271 203.687C695.579 204.139 695.682 204.88 695.682 205.94V228.955C695.682 230.272 695.579 231.198 695.373 231.743C695.167 232.288 694.859 232.669 694.344 232.905L693.315 233.399C692.492 233.728 691.978 234.14 691.67 234.634C691.361 235.128 691.155 235.704 691.155 236.363C691.155 237.278 691.464 238.009 692.082 238.533C692.596 239.058 693.625 239.325 694.962 239.325H722.226C723.461 239.325 724.386 239.058 725.107 238.533C725.724 238.009 726.033 237.268 726.033 236.311C726.033 235.416 725.827 234.726 725.312 234.233C724.901 233.739 724.18 233.399 723.151 233.194L719.448 232.453C718.213 232.226 717.493 231.877 717.184 231.393C716.773 230.92 716.67 230.107 716.67 228.955Z" fill="white"/>
<path d="M769.45 211.568V228.955C769.45 230.107 769.656 230.92 769.965 231.393C770.273 231.877 771.097 232.226 772.228 232.453L776.035 233.194C776.961 233.399 777.681 233.739 778.195 234.233C778.607 234.726 778.916 235.416 778.916 236.311C778.916 237.268 778.504 238.009 777.887 238.533C777.27 239.058 776.343 239.325 775.109 239.325H747.742C746.405 239.325 745.479 239.058 744.862 238.533C744.347 238.009 744.039 237.278 744.039 236.363C744.039 235.704 744.141 235.128 744.45 234.634C744.861 234.14 745.376 233.728 746.097 233.399L747.228 232.905C747.742 232.669 748.051 232.288 748.257 231.743C748.463 231.198 748.565 230.272 748.565 228.955V205.94C748.565 204.88 748.36 204.139 748.154 203.687C747.846 203.244 747.433 202.946 746.816 202.781L745.787 202.432C745.067 202.205 744.553 201.876 744.244 201.444C743.935 201.012 743.833 200.477 743.833 199.818C743.833 199.026 744.038 198.388 744.45 197.915C744.964 197.432 745.684 196.979 746.816 196.557L757.516 192.411C759.78 191.485 761.529 190.888 762.558 190.631C763.587 190.363 764.307 190.229 764.924 190.229C765.85 190.229 766.57 190.569 766.982 191.248C767.496 191.917 767.907 193.069 768.113 194.674L768.99 201.453C769.162 200.911 769.349 200.39 769.554 199.89C770.891 196.608 772.64 194.18 774.8 192.606C776.961 191.022 779.327 190.229 782.002 190.229C785.5 190.229 788.175 191.279 790.027 193.368C791.879 195.456 792.805 198.615 792.805 202.823C792.805 207.144 791.982 210.312 790.233 212.36C788.484 214.397 786.221 215.415 783.443 215.415C780.665 215.415 778.607 214.705 777.166 213.275C775.726 211.835 775.109 209.86 775.109 207.319V205.25C775.006 204.386 774.801 203.738 774.492 203.296C774.183 202.853 773.566 202.627 772.846 202.627C772.229 202.627 771.611 202.915 771.097 203.491C770.583 204.067 770.273 205.004 769.965 206.31C769.656 207.607 769.45 209.366 769.45 211.568Z" fill="white"/>
<path d="M799.698 201.444L821.424 246.29C820.713 247.813 820.09 249.014 819.554 249.892C818.731 251.24 818.114 252.104 817.6 252.485C816.982 252.865 816.468 253.05 815.85 253.05C815.13 253.05 814.512 252.742 813.895 252.114C813.278 251.486 812.764 250.632 812.249 249.542L811.221 247.176C810.295 244.964 809.265 243.204 808.031 241.887C806.796 240.571 805.048 239.912 802.682 239.912C800.315 239.912 798.36 240.715 797.023 242.309C795.583 243.904 794.862 246.085 794.862 248.853C794.862 252.742 796.303 255.952 799.081 258.503C801.961 261.055 805.768 262.33 810.5 262.33C813.793 262.33 816.57 261.755 818.731 260.582C820.994 259.409 823.052 257.299 824.904 254.233C826.859 251.178 828.917 246.816 831.283 241.147L846.303 204.654C847.229 202.514 848.052 200.971 848.875 200.014C849.698 199.058 850.83 198.265 851.962 197.638C852.785 197.216 853.402 196.763 853.711 196.28C854.02 195.807 854.225 195.272 854.225 194.675C854.225 193.759 853.916 193.028 853.299 192.504C852.579 191.979 851.756 191.711 850.625 191.711H836.735C835.707 191.711 834.781 191.979 834.163 192.504C833.546 193.028 833.237 193.759 833.237 194.675C833.237 195.405 833.443 196.022 833.855 196.527C834.266 197.041 834.884 197.432 835.707 197.689L837.25 198.235C838.69 198.667 839.41 199.428 839.616 200.529C839.925 201.63 839.617 203.234 838.691 205.343L831.246 223.942L822.64 204.356C821.714 202.216 821.406 200.704 821.611 199.819C821.817 198.924 822.538 198.286 823.875 197.884L825.212 197.494C826.138 197.226 826.755 196.876 827.064 196.434C827.476 195.992 827.682 195.405 827.682 194.675C827.682 193.759 827.373 193.028 826.653 192.504C826.036 191.979 825.213 191.711 824.081 191.711H797.537C796.406 191.711 795.582 191.979 794.862 192.504C794.245 193.028 793.937 193.759 793.937 194.675C793.937 195.405 794.039 195.992 794.347 196.434C794.656 196.876 795.171 197.267 795.788 197.597C796.714 198.018 797.434 198.471 797.948 198.954C798.566 199.428 799.08 200.261 799.698 201.444Z" fill="white"/>
<path d="M605.456 256.867C604.427 257.134 603.192 257.258 601.649 257.258H565.846C564.405 257.258 563.376 257.556 562.656 258.153C561.936 258.739 561.627 259.562 561.627 260.622C561.627 262.402 562.45 263.616 564.199 264.274L566.052 264.964C566.978 265.293 567.594 265.715 568.006 266.229C568.417 266.733 568.624 267.402 568.624 268.225V315.438C568.624 316.261 568.417 316.93 568.006 317.434C567.594 317.948 566.978 318.37 566.052 318.699L564.199 319.389C562.45 320.047 561.627 321.261 561.627 323.041C561.627 324.06 561.936 324.872 562.656 325.49C563.376 326.097 564.405 326.395 565.846 326.395H595.682C597.122 326.395 598.253 326.097 598.871 325.49C599.591 324.872 600.003 324.06 600.003 323.041C600.003 321.951 599.694 321.127 599.283 320.551C598.768 319.975 598.048 319.564 597.019 319.337L594.035 318.699C593.109 318.494 592.492 318.113 592.081 317.537C591.669 316.961 591.463 316.261 591.463 315.438V296.816H597.739C599.488 296.816 600.929 296.971 602.061 297.259C603.09 297.557 604.118 298.082 604.941 298.823C605.764 299.563 606.69 300.603 607.616 301.95C608.336 302.907 609.056 303.524 609.879 303.802C610.702 304.09 611.526 304.059 612.451 303.73C613.377 303.401 613.995 302.907 614.303 302.249C614.715 301.59 614.715 300.674 614.407 299.481L610.6 283.781C610.188 281.97 608.953 281.065 607.101 281.065C606.278 281.065 605.559 281.26 604.941 281.662C604.427 282.053 603.913 282.742 603.604 283.73C602.781 286.199 601.958 287.845 601.032 288.668C600.106 289.491 598.665 289.903 596.607 289.903H591.463V264.326H596.813C598.974 264.326 601.031 264.665 602.78 265.365C604.529 266.054 606.278 267.33 607.924 269.192C609.673 271.044 611.32 273.76 613.172 277.31C613.686 278.431 614.406 279.151 615.23 279.46C616.155 279.768 616.979 279.861 617.802 279.727C618.933 279.563 619.756 279.131 620.374 278.421C620.991 277.711 621.094 276.847 620.888 275.828L616.464 260.818C615.95 258.976 615.332 257.669 614.509 256.887C613.686 256.116 612.554 255.735 611.011 255.735C610.085 255.735 609.262 255.859 608.336 256.106C607.747 256.282 607.053 256.459 606.328 256.643L606.327 256.643L606.326 256.644C606.039 256.717 605.747 256.791 605.456 256.867Z" fill="white"/>
<path fill-rule="evenodd" clip-rule="evenodd" d="M672.021 296.374C672.021 298.678 671.403 300.469 670.168 301.734C668.934 303 667.083 303.637 664.819 303.637H640.914C641.592 306.024 642.662 307.957 644.139 309.44C646.814 312.218 650.518 313.606 655.148 313.606C657.308 313.606 659.263 313.36 661.115 312.866C662.864 312.372 664.613 311.374 666.362 309.851C667.288 308.997 668.008 308.422 668.523 308.123C669.037 307.835 669.449 307.681 669.963 307.681C670.581 307.681 671.094 308.01 671.403 308.668C671.712 309.327 671.815 310.14 671.815 311.086C671.815 314.018 670.889 316.765 668.831 319.317C666.876 321.868 664.098 323.915 660.6 325.459C657 327.012 652.885 327.784 648.152 327.784C643.214 327.784 638.687 326.786 634.571 324.79C630.559 322.804 627.472 320.016 625.106 316.446C622.74 312.876 621.608 308.699 621.608 303.925C621.608 298.565 622.637 293.884 624.797 289.903C626.958 285.921 630.044 282.824 634.159 280.623C638.275 278.411 643.213 277.31 648.975 277.31C654.119 277.31 658.338 278.133 661.733 279.779C665.231 281.425 667.803 283.678 669.449 286.548C671.198 289.409 672.021 292.69 672.021 296.374ZM640.09 298.493H648.666C650.518 298.493 651.444 297.639 651.444 295.931C651.444 291.785 650.93 288.822 650.004 287.042C648.975 285.262 647.74 284.378 646.197 284.378C645.065 284.378 643.933 284.799 643.11 285.653C642.184 286.517 641.361 287.824 640.847 289.584C640.332 291.343 640.024 293.576 640.024 296.271C640.024 297.038 640.046 297.779 640.09 298.493Z" fill="white"/>
<path fill-rule="evenodd" clip-rule="evenodd" d="M711.836 279.413V267.34C711.836 266.281 711.733 265.53 711.425 265.087C711.116 264.645 710.704 264.336 710.19 264.172L709.059 263.832C708.441 263.595 707.926 263.266 707.618 262.844C707.309 262.412 707.103 261.867 707.103 261.209C707.103 260.427 707.309 259.799 707.72 259.336C708.235 258.873 708.955 258.41 710.19 257.957L721.095 253.709C722.844 253.05 724.182 252.566 725.21 252.278C726.239 251.98 727.268 251.826 728.297 251.826C729.737 251.826 730.869 252.247 731.589 253.091C732.412 253.924 732.824 254.994 732.824 256.27V316.025C732.824 317.341 732.927 318.278 733.133 318.823C733.338 319.358 733.647 319.749 734.161 319.976L735.19 320.469C736.013 320.799 736.528 321.21 736.837 321.704C737.146 322.197 737.351 322.774 737.351 323.432C737.351 324.358 737.042 325.079 736.425 325.614C735.808 326.138 734.882 326.395 733.545 326.395H720.993C718.832 326.395 716.877 325.593 715.128 323.977C714.152 323.02 713.43 321.961 713.003 320.797C711.897 321.909 710.753 322.911 709.573 323.803C705.972 326.457 701.959 327.784 697.432 327.784C693.522 327.784 690.025 326.776 686.939 324.77C683.852 322.763 681.383 319.986 679.531 316.446C677.782 312.907 676.855 308.823 676.855 304.172C676.855 298.812 677.988 294.111 680.251 290.078C682.412 286.045 685.395 282.907 689.201 280.674C693.008 278.431 697.33 277.31 702.165 277.31C705.814 277.31 709.038 278.016 711.836 279.413ZM711.836 315.139V287.518C711.452 287.17 711.074 286.871 710.704 286.62C709.367 285.715 707.824 285.263 706.281 285.263C704.737 285.263 703.4 285.818 702.165 286.939C701.034 288.061 700.107 289.851 699.49 292.3C698.872 294.748 698.564 297.999 698.564 302.053C698.564 305.736 698.872 308.71 699.49 310.963C700.21 313.226 701.136 314.872 702.268 315.901C703.502 316.94 704.84 317.465 706.281 317.465C708.132 317.465 709.778 316.848 711.321 315.613C711.493 315.466 711.664 315.308 711.836 315.139Z" fill="white"/>
<path d="M768.009 281.754V316.024C768.009 317.341 768.112 318.278 768.317 318.823C768.523 319.358 768.935 319.749 769.346 319.975L770.477 320.469C771.198 320.798 771.816 321.21 772.124 321.704C772.433 322.197 772.639 322.774 772.639 323.432C772.639 324.358 772.33 325.078 771.712 325.613C771.095 326.138 770.169 326.395 768.832 326.395H746.3C744.962 326.395 744.037 326.138 743.419 325.613C742.905 325.078 742.597 324.358 742.597 323.432C742.597 322.774 742.699 322.197 743.111 321.704C743.42 321.21 743.934 320.798 744.654 320.469L745.786 319.975C746.3 319.749 746.609 319.358 746.814 318.823C747.02 318.278 747.124 317.341 747.124 316.024V292.814C747.124 291.765 747.021 291.014 746.712 290.571C746.403 290.129 745.992 289.82 745.477 289.656L744.346 289.316C743.626 289.079 743.111 288.75 742.803 288.328C742.494 287.896 742.391 287.351 742.391 286.693C742.391 285.901 742.597 285.283 743.009 284.82C743.42 284.357 744.243 283.894 745.477 283.431L756.383 279.193C758.132 278.493 759.572 278.009 760.601 277.732C761.63 277.454 762.555 277.31 763.276 277.31C764.922 277.31 766.053 277.731 766.877 278.575C767.7 279.408 768.009 280.468 768.009 281.754Z" fill="white"/>
<path d="M756.486 272.968C752.782 272.968 749.901 272.114 747.741 270.396C745.58 268.688 744.552 266.353 744.552 263.39C744.552 260.458 745.58 258.153 747.741 256.476C749.901 254.789 752.782 253.955 756.486 253.955C760.19 253.955 763.07 254.789 765.231 256.476C767.391 258.153 768.42 260.458 768.42 263.39C768.42 266.353 767.391 268.688 765.231 270.396C763.07 272.114 760.19 272.968 756.486 272.968Z" fill="white"/>
<path d="M799.389 326.395H807.414C808.648 326.395 809.78 326.138 810.912 325.613C812.044 325.078 812.866 324.029 813.587 322.444L825.418 291.683C826.344 289.409 827.064 287.773 827.578 286.764C828.093 285.766 828.71 285.149 829.328 284.913L830.254 284.573C831.077 284.275 831.694 283.884 832.003 283.411C832.209 282.937 832.414 282.382 832.414 281.754C832.414 280.838 832.106 280.108 831.489 279.583C830.768 279.059 829.945 278.791 828.813 278.791H816.056C814.925 278.791 814.101 279.059 813.381 279.583C812.763 280.108 812.455 280.838 812.455 281.754C812.455 282.484 812.661 283.06 813.072 283.513C813.484 283.956 813.998 284.306 814.821 284.573L816.159 284.964C817.496 285.324 818.319 285.952 818.525 286.847C818.833 287.732 818.628 289.265 817.804 291.435L810.533 311.698L802.784 291.435C801.961 289.295 801.652 287.783 801.961 286.888C802.27 286.003 803.092 285.365 804.43 284.964L805.768 284.573C806.591 284.306 807.208 283.956 807.62 283.513C807.928 283.06 808.134 282.484 808.134 281.754C808.134 279.779 807.002 278.791 804.636 278.791H777.99C776.961 278.791 776.035 279.059 775.417 279.583C774.697 280.108 774.389 280.838 774.389 281.754C774.389 282.484 774.594 283.06 774.903 283.513C775.212 283.956 775.623 284.336 776.343 284.666L777.372 285.159C777.68 285.324 777.989 285.612 778.298 286.024C778.607 286.435 779.018 287.238 779.533 288.421L793.319 322.002C793.936 323.514 794.759 324.626 795.788 325.335C796.817 326.045 797.949 326.395 799.389 326.395Z" fill="white"/>
<path fill-rule="evenodd" clip-rule="evenodd" d="M885.09 296.374C885.09 298.678 884.37 300.469 883.135 301.734C881.901 303 880.152 303.637 877.786 303.637H853.974C854.64 306.024 855.684 307.957 857.106 309.44C859.781 312.218 863.485 313.606 868.115 313.606C870.275 313.606 872.333 313.36 874.082 312.866C875.831 312.372 877.58 311.374 879.329 309.851C880.255 308.997 880.975 308.422 881.489 308.123C882.004 307.835 882.416 307.681 882.93 307.681C883.547 307.681 884.061 308.01 884.37 308.668C884.679 309.327 884.884 310.14 884.884 311.086C884.884 314.018 883.856 316.765 881.901 319.317C879.844 321.868 877.065 323.915 873.567 325.459C870.069 327.012 865.851 327.784 861.221 327.784C856.18 327.784 851.653 326.786 847.641 324.79C843.628 322.804 840.439 320.016 838.073 316.446C835.706 312.876 834.575 308.699 834.575 303.925C834.575 298.565 835.604 293.884 837.764 289.903C839.925 285.921 843.011 282.824 847.126 280.623C851.241 278.411 856.18 277.31 861.942 277.31C867.086 277.31 871.304 278.133 874.802 279.779C878.197 281.425 880.769 283.678 882.518 286.548C884.164 289.409 885.09 292.69 885.09 296.374ZM853.16 298.493H861.633C863.485 298.493 864.411 297.639 864.411 295.931C864.411 291.785 863.896 288.822 862.97 287.042C862.045 285.262 860.707 284.378 859.164 284.378C858.032 284.378 857.003 284.799 856.077 285.653C855.151 286.517 854.431 287.824 853.814 289.584C853.299 291.343 853.094 293.576 853.094 296.271C853.094 297.038 853.116 297.779 853.16 298.493Z" fill="white"/>
<path d="M915.853 298.648V316.024C915.853 317.177 915.955 318 916.263 318.473C916.675 318.946 917.395 319.306 918.527 319.533L922.334 320.273C923.363 320.469 924.083 320.819 924.494 321.313C925.009 321.806 925.215 322.496 925.215 323.391C925.215 324.337 924.906 325.078 924.186 325.613C923.568 326.138 922.642 326.395 921.408 326.395H894.041C892.807 326.395 891.778 326.138 891.263 325.613C890.646 325.078 890.337 324.358 890.337 323.432C890.337 322.774 890.44 322.197 890.851 321.703C891.16 321.21 891.675 320.798 892.498 320.469L893.527 319.975C894.041 319.749 894.35 319.358 894.556 318.823C894.761 318.278 894.864 317.341 894.864 316.024V293.02C894.864 291.96 894.761 291.209 894.452 290.767C894.143 290.324 893.733 290.016 893.218 289.851L892.086 289.511C891.366 289.275 890.955 288.946 890.646 288.524C890.338 288.092 890.132 287.546 890.132 286.888C890.132 286.106 890.337 285.468 890.749 284.995C891.263 284.512 892.087 284.059 893.218 283.637L903.815 279.48C906.181 278.565 907.827 277.968 908.856 277.711C909.885 277.443 910.708 277.31 911.223 277.31C912.149 277.31 912.869 277.649 913.383 278.328C913.794 278.997 914.206 280.139 914.412 281.754L915.337 288.383C915.495 287.895 915.667 287.424 915.853 286.97C917.19 283.688 918.939 281.26 921.099 279.686C923.26 278.102 925.729 277.31 928.301 277.31C931.799 277.31 934.474 278.359 936.326 280.447C938.178 282.536 939.104 285.695 939.104 289.903C939.104 294.213 938.281 297.392 936.532 299.439C934.783 301.477 932.52 302.495 929.742 302.495C926.964 302.495 924.906 301.786 923.465 300.345C922.128 298.915 921.408 296.929 921.408 294.398V292.32C921.305 291.466 921.202 290.818 920.791 290.376C920.482 289.934 919.968 289.707 919.247 289.707C918.527 289.707 918.013 289.995 917.498 290.571C916.984 291.147 916.572 292.083 916.263 293.39C915.955 294.686 915.853 296.436 915.853 298.648Z" fill="white"/>
<path d="M966.78 321.508C968.632 321.508 970.072 321.096 970.998 320.273C971.821 319.45 972.335 318.463 972.335 317.31C972.335 316.621 972.13 315.973 971.924 315.366C971.616 314.749 970.998 314.193 970.072 313.679C969.146 313.175 967.603 312.753 965.546 312.423C959.373 311.405 954.742 310.047 951.553 308.349C948.363 306.652 946.101 304.646 944.969 302.32C943.837 300.006 943.22 297.392 943.22 294.501C943.22 289.131 945.174 284.923 948.878 281.878C952.582 278.832 958.137 277.31 965.442 277.31C967.911 277.31 969.97 277.505 971.41 277.906C972.953 278.297 974.188 278.698 975.011 279.089C975.937 279.48 976.759 279.686 977.48 279.686C978.303 279.686 978.92 279.48 979.435 279.089L979.543 278.987C979.919 278.628 980.302 278.263 980.772 277.906C981.286 277.505 981.904 277.31 982.83 277.31C983.55 277.31 984.167 277.546 984.681 277.999C985.299 278.462 985.711 279.316 986.122 280.571L988.694 289.316C989.209 291.024 989.311 292.392 989.105 293.411C988.899 294.429 988.282 295.139 987.253 295.53C986.122 295.931 985.298 295.941 984.475 295.581C983.755 295.221 982.933 294.501 982.213 293.411C980.669 291.209 979.126 289.378 977.48 287.927C975.833 286.476 974.084 285.396 972.335 284.666C970.586 283.945 968.735 283.586 966.78 283.586C964.517 283.586 962.87 283.997 961.841 284.82C960.709 285.643 960.195 286.744 960.195 288.122C960.195 288.987 960.401 289.727 960.812 290.345C961.224 290.972 962.15 291.538 963.59 292.053C964.928 292.567 966.985 293.061 969.763 293.555C974.496 294.419 978.303 295.643 981.184 297.238C983.962 298.833 985.916 300.798 987.151 303.143C988.386 305.479 989.003 308.226 989.003 311.385C989.003 314.677 988.077 317.557 986.328 320.027C984.579 322.496 982.109 324.409 979.023 325.757C975.936 327.105 972.438 327.784 968.529 327.784C966.059 327.784 964.105 327.578 962.767 327.167C961.327 326.755 960.195 326.343 959.269 325.932C958.446 325.52 957.52 325.315 956.697 325.315C955.874 325.315 955.155 325.52 954.434 325.932C953.817 326.343 953.2 326.755 952.685 327.167C952.068 327.578 951.347 327.784 950.524 327.784C949.804 327.784 949.29 327.516 948.776 326.992C948.261 326.467 947.849 325.562 947.643 324.276L946.1 315.829C945.792 314.152 945.792 312.897 946.1 312.053C946.306 311.21 946.924 310.592 947.849 310.201C948.878 309.769 949.804 309.78 950.524 310.222C951.347 310.675 952.171 311.467 952.994 312.619C955.257 315.88 957.624 318.175 959.887 319.512C962.253 320.839 964.517 321.508 966.78 321.508Z" fill="white"/>
<path fill-rule="evenodd" clip-rule="evenodd" d="M1044.15 301.734C1045.38 300.469 1046 298.678 1046 296.374C1046 292.69 1045.18 289.409 1043.43 286.548C1041.78 283.678 1039.21 281.425 1035.81 279.779C1032.32 278.133 1028.1 277.31 1022.95 277.31C1017.19 277.31 1012.25 278.411 1008.14 280.623C1004.02 282.824 1000.94 285.921 998.777 289.903C996.616 293.884 995.588 298.565 995.588 303.925C995.588 308.699 996.719 312.876 999.085 316.446C1001.45 320.016 1004.54 322.804 1008.65 324.79C1012.67 326.786 1017.19 327.784 1022.13 327.784C1026.86 327.784 1030.98 327.012 1034.58 325.459C1038.08 323.915 1040.86 321.868 1042.81 319.317C1044.87 316.765 1045.79 314.018 1045.79 311.086C1045.79 310.14 1045.69 309.327 1045.38 308.668C1045.07 308.01 1044.56 307.681 1043.94 307.681C1043.43 307.681 1043.02 307.835 1042.5 308.123C1041.99 308.422 1041.27 308.997 1040.34 309.851C1038.59 311.374 1036.84 312.372 1035.09 312.866C1033.35 313.36 1031.29 313.606 1029.13 313.606C1024.5 313.606 1020.79 312.218 1018.12 309.44C1016.64 307.957 1015.57 306.024 1014.89 303.637H1038.8C1041.06 303.637 1042.91 303 1044.15 301.734ZM1022.65 298.493H1014.07C1014.03 297.779 1014 297.038 1014 296.271C1014 293.576 1014.31 291.343 1014.83 289.584C1015.34 287.824 1016.16 286.517 1017.09 285.653C1018.02 284.799 1019.04 284.378 1020.18 284.378C1021.72 284.378 1023.06 285.262 1023.98 287.042C1024.91 288.822 1025.42 291.785 1025.42 295.931C1025.42 297.639 1024.5 298.493 1022.65 298.493Z" fill="white"/>
</svg>
